<svg xmlns="http://www.w3.org/2000/svg" viewBox="0 0 64 64"><title>Artboard-12</title><g id="Medal"><path d="M37,32.8113V28h1a3,3,0,0,0,0-6H37V18.6182l7.4473-3.7237A1,1,0,0,0,45,14V1a1,1,0,0,0-2,0V13.3818l-6,3V1a1,1,0,0,0-2,0V17H29V1a1,1,0,0,0-2,0V16.3818l-6-3V1a1,1,0,0,0-2,0V14a1,1,0,0,0,.5527.8945L27,18.6182V22H26a3,3,0,0,0,0,6h1v4.8113a16,16,0,1,0,10,0ZM29,19h6v3H29Zm-4,6a1.0013,1.0013,0,0,1,1-1H38a1,1,0,0,1,0,2H26A1.0013,1.0013,0,0,1,25,25Zm4,7.2817V28h6v4.2817A18.7549,18.7549,0,0,0,32,32,18.7549,18.7549,0,0,0,29,32.2817ZM32,62A13.9971,13.9971,0,1,1,46,48,14.0158,14.0158,0,0,1,32,62Z" style="fill:#222226"/><path d="M32,35A13,13,0,1,0,45,48,13.0144,13.0144,0,0,0,32,35Zm0,24A11,11,0,1,1,43,48,11.0125,11.0125,0,0,1,32,59Z" style="fill:#222226"/><path d="M39.7856,45.6563a1,1,0,0,0-.8076-.6807l-4.2021-.61L32.897,40.5576a1.0418,1.0418,0,0,0-1.794,0l-1.8789,3.8076-4.2021.61a1,1,0,0,0-.5547,1.7056l3.04,2.9643L26.79,53.8311a1,1,0,0,0,1.4512,1.0542L32,52.9092l3.7588,1.9761A1,1,0,0,0,37.21,53.8311l-.7178-4.1856,3.0405-2.9643A1,1,0,0,0,39.7856,45.6563Zm-5.0664,2.9243a1.0017,1.0017,0,0,0-.2876.8847l.4644,2.7066L32.4653,50.894a1.0011,1.0011,0,0,0-.9306,0L29.104,52.1719l.4644-2.7066a1.0017,1.0017,0,0,0-.2876-.8847l-1.9663-1.917,2.7172-.3946a1,1,0,0,0,.7535-.5473L32,43.26l1.2148,2.4619a1,1,0,0,0,.7535.5473l2.7172.3946Z" style="fill:#222226"/></g></svg>