<?xml version="1.0" encoding="iso-8859-1"?>
<!-- Generator: Adobe Illustrator 22.0.1, SVG Export Plug-In . SVG Version: 6.00 Build 0)  -->
<svg version="1.1" xmlns="http://www.w3.org/2000/svg" xmlns:xlink="http://www.w3.org/1999/xlink" x="0px" y="0px"
	 viewBox="0 0 64 64" style="enable-background:new 0 0 64 64;" xml:space="preserve">
<g id="_x31_5">
	<path style="fill:#AAD15D;" d="M46.753,57.242l6.851,0.739c-8.033,8.902-23.628,5.69-28.945,4.287
		c3.008-7.806,15.233-36.904,13.765-37.603L48.18,0c6.741,7.593,4.419,18.172,4.419,18.172s4.643-0.952,6.347-0.278
		c2.635,12.471-6.111,19.013-6.459,19.269c0.218-0.003,3.76-0.139,6.793,1.061c-1.547,3.487-8.269,9.696-8.269,9.696l6.411,0.407
		C54.181,53.608,46.753,57.242,46.753,57.242z"/>
	<path style="fill:#90B74B;" d="M48.18,0l-9.755,24.666C36.965,23.97,25.447,53.21,22.008,61.082
		C16.676,58.047,4.348,49.89,4.563,38.585l5.503,4.147c0,0-2.933-7.732-1.685-13.8l4.955,4.088c0,0-0.665-9.13,0.601-12.729
		c3.025,1.196,5.524,3.722,5.681,3.872c-0.078-0.425-1.992-11.182,8.469-18.474c1.704,0.674,4.44,4.544,4.44,4.544
		S38.069,0.927,48.18,0z"/>
</g>
<g id="Layer_1">
</g>
</svg>
